<mxfile host="app.diagrams.net" modified="2024-01-16T20:16:46.972Z" agent="Mozilla/5.0 (Windows NT 10.0; Win64; x64) AppleWebKit/537.36 (KHTML, like Gecko) Chrome/120.0.0.0 Safari/537.36" etag="Fa8K-JBZgDeKCqNwcC8q" version="22.1.18" type="github">
  <diagram name="Page-1" id="76oeeXqAR_Y8w2fgNyt6">
    <mxGraphModel dx="1050" dy="565" grid="1" gridSize="10" guides="1" tooltips="1" connect="1" arrows="1" fold="1" page="1" pageScale="1" pageWidth="827" pageHeight="1169" math="0" shadow="0">
      <root>
        <mxCell id="0" />
        <mxCell id="1" parent="0" />
        <mxCell id="WMfQaxMlP1OemewcHctR-1" value="" style="shape=image;verticalLabelPosition=bottom;verticalAlign=top;imageAspect=0;aspect=fixed;image=data:image/svg+xml,PHN2ZyB4bWxucz0iaHR0cDovL3d3dy53My5vcmcvMjAwMC9zdmciIHZpZXdCb3g9IjAgMCA3MiA3MiI+PHBhdGggZmlsbD0iIzkyZDNmNSIgZD0ibTE3LjEzNDcgNTguODk4OXMtMi0xMy41IDEwLTEzLjVjMy4xOTE4IDIuMTI3OSA1LjkyNjQgMy41OTg0IDkgMy41OTIyaC0uMTI0N2MzLjA3MzYuMDA2MiA1LjQwODEtMi4xNjQzIDguNi00LjI5MjIgMTUuNTcwNSAwIDEwLjggMTQuMiAxMC44IDE0LjIiLz48cGF0aCBmaWxsPSIjNjFiMmU0IiBkPSJtNDkuMjk3IDU4Ljg2MXYtMTIuODc1bC00LjQ5MS0uNzg0djcuMjQ1aC0xNy44NzdsLjAwMi03LjI0NS00LjY2Ni43ODR2MTIuODc1eiIvPjxwYXRoIGZpbGw9IiNkMGNmY2UiIGQ9Im02Ny4wODcgNDMuNDIzLTYuOTUgMTYuMzQ5aC0yNC45OWw2Ljk1LTE2LjM0OXoiLz48cGF0aCBmaWxsPSIjOWI5YjlhIiBkPSJtNjcuMzAzIDQzLjQyMy02Ljk1IDE2LjM0OWgtLjIyLTguNzdsNi45NS0xNi4zNDloOC43N3oiLz48cGF0aCBmaWxsPSIjZjRhYTQxIiBkPSJtNDkuMTYzMSAzMy43ODgzYy0yLjExMzEgNS4yODQ3LTcuNDE5MiA4LjcwMjQtMTMuNjMxMSA4LjcwMjQtNS4zNTUxIDAtMTEuMzEtMy4zMDc1LTEzLjQyMzMtOC41OTIybC0uMDc0Mi0uMTgxM2MtLjY3LTEuNjU3Ni0uNTYyMi0zLjY4NjUtLjU2MjItNS41ODM1bDIuMTUzOC0xOC43NjM3IDYuMDA3NiA1Ljg0MjlhMTQuMzU0NSAxNC4zNTQ1IDAgMCAxIDUuNTg2LTEuMTIzOWguNjI0NmExNC4zNTQ1IDE0LjM1NDUgMCAwIDEgNS41ODYgMS4xMjM5bDYuNTk1MS02LjQyMjkgMi4xODYzIDE5LjYzNjRhMTQuMjY3MiAxNC4yNjcyIDAgMCAxIC0xLjA0IDUuMzY1NyIvPjxwYXRoIGZpbGw9IiNlMjcwMjIiIGQ9Im0zNS41MzIgNDIuNDkwN2M2LjIzMTIuMTk4NSAxMS45NTUzLTMuMzk4MSAxNC4wNjg0LTguNjgyOGwuMDY1MS0uMTMzOWMuNjctMS42NTc2LjU2MjYtMy45OTc2LjU2MjYtNS44OTQ2bC0yLjIwMjctMTguOTg5NCIvPjxwYXRoIGZpbGw9IiNiMzk5YzgiIGQ9Im0yMi42NTIgMTcuNy0uNDg3IDQuNzI4IDI3LjEzMi0xLjY0MS0uMjgzLTIuNDU0eiIvPjxwYXRoIGZpbGw9IiNiMzk5YzgiIGQ9Im01MC44OTcyIDE5LjZhMiAyIDAgMSAxIC0yLTIgMi4wMDA3IDIuMDAwNyAwIDAgMSAyIDIiLz48cGF0aCBmaWxsPSIjZmZmIiBkPSJtNDcuMDcyMyAyNC45NzQ4cy04LjE2NzggMy40MDc1LTcuNzgzNyAzLjg0YzcuODE1NCA3LjAxNTkgOC40Mjg2LTIuODYyNyA3Ljc4MzctMy44NHoiLz48cGF0aCBmaWxsPSIjZmZmIiBkPSJtMjQuNjI4MSAyNC45NzQ4czcuNTU2OSA0LjAxIDcuNzgzNyAzLjg0Yy03LjU0NDUgNy4zODM5LTguNTQ1NS0yLjIzNjktNy43ODM3LTMuODR6Ii8+PHBhdGggZmlsbD0iI2ZmZiIgZD0ibTUzLjcyMTYgNTEuNzM3NmEzLjQyIDMuNDIgMCAwIDEgLTIuODQ4OSAyYy0xLjEwMzUgMC0xLjYyLS44OTU1LTEuMTUxMS0yYTMuNDIxMiAzLjQyMTIgMCAwIDEgMi44NDktMmMxLjEwMzUgMCAxLjYxOTQuODk2NSAxLjE1MSAyIi8+PGcgc3Ryb2tlLWxpbmVqb2luPSJyb3VuZCIgc3Ryb2tlLWxpbmVjYXA9InJvdW5kIiBzdHJva2U9IiMwMDAiIGZpbGw9Im5vbmUiPjxwYXRoIHN0cm9rZS13aWR0aD0iMiIgZD0ibTM2Ljg3MjMgNDguMzk4NmE2Ljg0NzIgNi44NDcyIDAgMCAxIC0xLjA2NjUuMDgxMWguMTI1Yy0zLjA3MzYuMDA2My01LjgwODEtMS40NjQyLTktMy41OTIxLTEyIDAtMTAgMTMtMTAgMTMiLz48cGF0aCBzdHJva2Utd2lkdGg9IjIiIGQ9Im0zNS40NjcgNTIuMTMzaC04LjUzOGwuMDAyLTcuMjQ1Ii8+PHBhdGggc3Ryb2tlLXdpZHRoPSIyIiBkPSJtMjIuMjY0OSA0NS43NTY5djEyLjEwOTciLz48cGF0aCBzdHJva2Utd2lkdGg9IjIiIGQ9Im0zNS4xNDcgNTkuNzcyaDI0Ljk5bDYuOTUtMTYuMzQ5aC0yNC45OXoiLz48cGF0aCBzdHJva2Utd2lkdGg9IjIiIGQ9Im0yNC4xNzY3IDU5Ljc3MjVoMTAuOTciLz48cGF0aCBzdHJva2Utd2lkdGg9IjEuOCIgZD0ibTM4LjI5MzYgMzUuNTg5LTIuNDQzNC0zLjAxNDMiLz48cGF0aCBzdHJva2Utd2lkdGg9IjEuOCIgZD0ibTMzLjQwNjggMzUuNTg5IDIuNDQzNC0zLjAxNDMiLz48cGF0aCBzdHJva2Utd2lkdGg9IjEuOCIgZD0ibTMzLjQwNjggMzIuNTc0N2g0Ljg4NjgiLz48cGF0aCBzdHJva2Utd2lkdGg9IjIiIGQ9Im00OS43NjY3IDIzLjg2OS40Mzg3IDQuMTg0NGExMy42NjQgMTMuNjY0IDAgMCAxIC0xLjAxNzEgNS4xODkiLz48cGF0aCBzdHJva2Utd2lkdGg9IjIiIGQ9Im0yMi41MTIxIDMzLjI0MjNhMTMuNjYzNSAxMy42NjM1IDAgMCAxIC0xLjAxNzEtNS4xODg5bDIuMTM4LTE4Ljk5IDYuNDQ5MiA2LjIxMDlhMTQuMTc1IDE0LjE3NSAwIDAgMSA1LjQ2MjYtMS4wODY4aC42MTA4YTE0LjE4MjUgMTQuMTgyNSAwIDAgMSA1LjQ2MzIgMS4wODY4bDYuNDQ4NS02LjIxMDkuNjY1NSA2LjM5OSIvPjxwYXRoIHN0cm9rZS13aWR0aD0iMS44IiBkPSJtMjguMTExOSAzOS43MjE5YTE0LjEyMDcgMTQuMTIwNyAwIDAgMCA3LjQzMjkgMi4wOTY5aC42MTA4YTE0LjExOTEgMTQuMTE5MSAwIDAgMCA3LjQzMjktMi4wOTY5Ii8+PC9nPjxlbGxpcHNlIHJ5PSIxLjIwNTciIHJ4PSIxLjIyMTciIGN5PSIyNy43NTIiIGN4PSIyOC41MTk5Ii8+PGVsbGlwc2Ugcnk9IjEuMjA1NyIgcng9IjEuMjIxNyIgY3k9IjI3Ljc1MiIgY3g9IjQzLjE4MDUiLz48cGF0aCBzdHJva2Utd2lkdGg9IjEuNiIgc3Ryb2tlLWxpbmVqb2luPSJyb3VuZCIgc3Ryb2tlLWxpbmVjYXA9InJvdW5kIiBzdHJva2U9IiMwMDAiIGZpbGw9Im5vbmUiIGQ9Im00Ny4wNzIzIDI0Ljk0NzRzLTguMTY3OCAzLjQwNzUtNy43ODM3IDMuODRjNy44MTU0IDcuMDE1OSA4LjQyODYtMi44NjI3IDcuNzgzNy0zLjg0eiIvPjxwYXRoIHN0cm9rZS13aWR0aD0iMS42IiBzdHJva2UtbGluZWpvaW49InJvdW5kIiBzdHJva2UtbGluZWNhcD0icm91bmQiIHN0cm9rZT0iIzAwMCIgZmlsbD0ibm9uZSIgZD0ibTUwLjkyMTYgMzcuMTk0Ny01LjQ5NzctMy4wMTQzIi8+PHBhdGggc3Ryb2tlLXdpZHRoPSIxLjYiIHN0cm9rZS1saW5lam9pbj0icm91bmQiIHN0cm9rZS1saW5lY2FwPSJyb3VuZCIgc3Ryb2tlPSIjMDAwIiBmaWxsPSJub25lIiBkPSJtNDguNjc4MiAzOS44MDg5LTUuNDk3Ny0zLjAxNDIiLz48cGF0aCBzdHJva2Utd2lkdGg9IjEuNiIgc3Ryb2tlLWxpbmVqb2luPSJyb3VuZCIgc3Ryb2tlLWxpbmVjYXA9InJvdW5kIiBzdHJva2U9IiMwMDAiIGZpbGw9Im5vbmUiIGQ9Im0yNC42MjgxIDI0Ljk0NzRzNy41NTY5IDQuMDEgNy43ODM3IDMuODRjLTcuNTQ0NSA3LjM4MzgtOC41NDU1LTIuMjM2OS03Ljc4MzctMy44NHoiLz48cGF0aCBzdHJva2Utd2lkdGg9IjEuNiIgc3Ryb2tlLWxpbmVqb2luPSJyb3VuZCIgc3Ryb2tlLWxpbmVjYXA9InJvdW5kIiBzdHJva2U9IiMwMDAiIGZpbGw9Im5vbmUiIGQ9Im0yMC43Nzg4IDM3LjE5NDcgNS40OTc3LTMuMDE0MyIvPjxwYXRoIHN0cm9rZS13aWR0aD0iMS42IiBzdHJva2UtbGluZWpvaW49InJvdW5kIiBzdHJva2UtbGluZWNhcD0icm91bmQiIHN0cm9rZT0iIzAwMCIgZmlsbD0ibm9uZSIgZD0ibTIzLjAyMjIgMzkuODA4OSA1LjQ5NzctMy4wMTQyIi8+PHBhdGggc3Ryb2tlLXdpZHRoPSIxLjYiIHN0cm9rZS1saW5lam9pbj0icm91bmQiIHN0cm9rZS1saW5lY2FwPSJyb3VuZCIgc3Ryb2tlPSIjMDAwIiBmaWxsPSJub25lIiBkPSJtNDYuOTk4IDE4LjI4NC0yNC4zNDYtLjU4NC0uNDg3IDQuNzI4IDI0Ljg0LTEuNTAyIi8+PHBhdGggc3Ryb2tlLXdpZHRoPSIxLjYiIHN0cm9rZS1saW5lam9pbj0icm91bmQiIHN0cm9rZS1saW5lY2FwPSJyb3VuZCIgc3Ryb2tlPSIjMDAwIiBmaWxsPSJub25lIiBkPSJtNTAuNDk3MiAxOS42YTIgMiAwIDEgMSAtMi0yIDIuMDAwNyAyLjAwMDcgMCAwIDEgMiAyIi8+PC9zdmc+" vertex="1" parent="1">
          <mxGeometry x="350" y="10" width="72" height="72" as="geometry" />
        </mxCell>
        <mxCell id="WMfQaxMlP1OemewcHctR-2" value="" style="shape=image;verticalLabelPosition=bottom;verticalAlign=top;imageAspect=0;aspect=fixed;image=data:image/svg+xml,PHN2ZyB4bWxucz0iaHR0cDovL3d3dy53My5vcmcvMjAwMC9zdmciIHdpZHRoPSIyNCIgdmlld0JveD0iMCAwIDI0IDI0IiBoZWlnaHQ9IjI0IiBmaWxsPSJub25lIj48ZyBmaWxsPSIjMjkyZDMyIj48cGF0aCBkPSJtMTguMDAwMyA3LjkxMDAyYy0uMDMgMC0uMDUgMC0uMDggMGgtLjA1Yy0xLjg5LS4wNi0zLjMtMS41MjAwMS0zLjMtMy4zMjAwMSAwLTEuODQgMS41LTMuMzMgMy4zMy0zLjMzczMuMzMgMS41IDMuMzMgMy4zM2MtLjAxIDEuODEtMS40MiAzLjI3LTMuMjIgMy4zMyAwLS4wMSAwLS4wMDk5OS0uMDEtLjAwOTk5em0tLjEtNS4xNmMtMS4wMSAwLTEuODMuODItMS44MyAxLjgzIDAgLjk5Ljc3IDEuNzkgMS43NiAxLjgzLjAxLS4wMS4wOS0uMDEuMTggMCAuOTctLjA1IDEuNzItLjg1IDEuNzMtMS44MyAwLTEuMDEtLjgyLTEuODMtMS44NC0xLjgzeiIvPjxwYXRoIGQ9Im0xOC4wMTA1IDE1LjI4MDFjLS4zOSAwLS43OC0uMDMtMS4xNy0uMS0uNDEtLjA3LS42OC0uNDYtLjYxLS44N3MuNDYtLjY4Ljg3LS42MWMxLjIzLjIxIDIuNTMtLjAxOTkgMy40LS41OTk5LjQ3LS4zMS43Mi0uNzAwMS43Mi0xLjA5MDFzLS4yNi0uNzctLjcyLTEuMDhjLS44Ny0uNTgtMi4xOS0uODEtMy40My0uNTktLjQxLjA4LS44LS4yLS44Ny0uNjA5OTUtLjA3LS40MS4yLS44LjYxLS44NyAxLjYzLS4yOSAzLjMyLjAxOTk5IDQuNTIuODE5OTkuODguNTg5OTYgMS4zOSAxLjQyOTk2IDEuMzkgMi4zMjk5NiAwIC44OS0uNSAxLjc0MDEtMS4zOSAyLjM0MDEtLjkxLjYtMi4wOS45Mjk5LTMuMzIuOTI5OXoiLz48cGF0aCBkPSJtNS45NzA0NyA3LjkxYy0uMDEgMC0uMDIgMC0uMDIgMC0xLjgtLjA2LTMuMjEtMS41Mi0zLjIyLTMuMzIgMC0xLjg0IDEuNS0zLjM0IDMuMzMtMy4zNHMzLjMzIDEuNSAzLjMzIDMuMzNjMCAxLjgxLTEuNDEgMy4yNy0zLjIxIDMuMzNsLS4yMS0uNzUuMDcuNzVjLS4wMiAwLS4wNSAwLS4wNyAwem0uMS0xLjVjLjA2IDAgLjExIDAgLjE3LjAxLjg5LS4wNCAxLjY3LS44NCAxLjY3LTEuODMgMC0xLjAxLS44Mi0xLjgzMDAxLTEuODMtMS44MzAwMXMtMS44My44MjAwMS0xLjgzIDEuODMwMDFjMCAuOTguNzYgMS43NyAxLjczIDEuODMuMDEtLjAxLjA1LS4wMS4wOS0uMDF6Ii8+PHBhdGggZD0ibTUuOTYgMTUuMjgwMWMtMS4yMyAwLTIuNDEtLjMyOTktMy4zMi0uOTI5OS0uODgtLjU5LTEuMzktMS40NDAxLTEuMzktMi4zNDAxIDAtLjg5LjUxLTEuNzQgMS4zOS0yLjMyOTk2IDEuMi0uOCAyLjg5LTEuMTA5OTkgNC41Mi0uODE5OTkuNDEuMDcuNjguNDYuNjEuODctLjA3LjQwOTk1LS40Ni42ODk5NS0uODcuNjA5OTUtMS4yNC0uMjItMi41NS4wMS0zLjQzLjU5LS40Ny4zMS0uNzIuNjktLjcyIDEuMDhzLjI2Ljc4MDEuNzIgMS4wOTAxYy44Ny41OCAyLjE3LjgwOTkgMy40LjU5OTkuNDEtLjA3LjguMjEuODcuNjEuMDcuNDEtLjIuOC0uNjEuODctLjM5LjA3LS43OC4xLTEuMTcuMXoiLz48cGF0aCBkPSJtMTIuMDAwMyAxNS4zOGMtLjAzIDAtLjA1IDAtLjA4IDBoLS4wNWMtMS44ODk5OS0uMDYtMy4yOTk5OS0xLjUyLTMuMjk5OTktMy4zMiAwLTEuODQgMS40OTk5OS0zLjMzMDAyIDMuMzI5OTktMy4zMzAwMnMzLjMzIDEuNTAwMDIgMy4zMyAzLjMzMDAyYy0uMDEgMS44MS0xLjQyIDMuMjctMy4yMiAzLjMzIDAtLjAxIDAtLjAxLS4wMS0uMDF6bS0uMS01LjE2Yy0xLjAxIDAtMS44My44Mi0xLjgzIDEuODMgMCAuOTkuNzcgMS43OSAxLjc2IDEuODMuMDEtLjAxLjA5LS4wMS4xOCAwIC45Ny0uMDUgMS43Mi0uODUgMS43My0xLjgzIDAtMS0uODItMS44My0xLjg0LTEuODN6Ii8+PHBhdGggZD0ibTExLjk5OTMgMjIuNzZjLTEuMiAwLTIuNC0uMzEtMy4zMy0uOTQtLjg4LS41OS0xLjM5LTEuNDMtMS4zOS0yLjMzIDAtLjg5LjUtMS43NSAxLjM5LTIuMzQgMS44Ny0xLjI0IDQuOC0xLjI0IDYuNjYgMCAuODguNTkgMS4zOSAxLjQzIDEuMzkgMi4zMyAwIC44OS0uNSAxLjc1LTEuMzkgMi4zNC0uOTMuNjItMi4xMy45NC0zLjMzLjk0em0tMi41LTQuMzVjLS40Ny4zMS0uNzIuNy0uNzIgMS4wOXMuMjYuNzcuNzIgMS4wOGMxLjM1LjkxIDMuNjQuOTEgNC45OSAwIC40Ny0uMzEuNzItLjcuNzItMS4wOXMtLjI2LS43Ny0uNzItMS4wOGMtMS4zNC0uOTEtMy42My0uOS00Ljk5IDB6Ii8+PC9nPjwvc3ZnPg==" vertex="1" parent="1">
          <mxGeometry x="150" y="160" width="70" height="70" as="geometry" />
        </mxCell>
        <mxCell id="WMfQaxMlP1OemewcHctR-3" value="" style="rounded=0;whiteSpace=wrap;html=1;fillColor=none;" vertex="1" parent="1">
          <mxGeometry x="256" y="95" width="334" height="335" as="geometry" />
        </mxCell>
        <mxCell id="WMfQaxMlP1OemewcHctR-4" value="" style="shape=image;verticalLabelPosition=bottom;verticalAlign=top;imageAspect=0;aspect=fixed;image=data:image/svg+xml,PHN2ZyB4bWxucz0iaHR0cDovL3d3dy53My5vcmcvMjAwMC9zdmciIHZpZXdCb3g9IjAgMCAzMiAzMiI+PHBhdGggZmlsbD0iIzAxOTYzOSIgZD0ibTE1Ljk0OCAyaC4wNjVhMTAuNDE4IDEwLjQxOCAwIDAgMSAuOTcyLjUyOHE1LjQyOSAzLjEyMiAxMC44NTggNi4yNDZhLjc5Mi43OTIgMCAwIDEgLjQxNC43ODhjLS4wMDggNC4zODkgMCA4Ljc3Ny0uMDA1IDEzLjE2NGEuODEzLjgxMyAwIDAgMSAtLjM1Ni41MDdxLTUuNzczIDMuMzI0LTExLjU0NyA2LjY0NGEuNTg3LjU4NyAwIDAgMSAtLjY1Ny4wMzdxLTUuNzgtMy4zMTQtMTEuNTQ5LTYuNjRhLjcuNyAwIDAgMSAtLjQtLjY2NnEwLTYuNTgyIDAtMTMuMTYzYS42OTMuNjkzIDAgMCAxIC4zODctLjY3cTUuNDIyLTMuMTE4IDEwLjg0NC02LjI0Yy4zMjItLjE4NC42MzgtLjM3OS45NzQtLjUzNSIvPjxwYXRoIGZpbGw9IiNmZmYiIGQ9Im04Ljc2NyAxMC41MzhxMCA1LjQyOSAwIDEwLjg1OWExLjUwOSAxLjUwOSAwIDAgMCAuNDI3IDEuMDg3IDEuNjQ3IDEuNjQ3IDAgMCAwIDIuMDYuMjA2IDEuNTY0IDEuNTY0IDAgMCAwIC42ODUtMS4yOTNjMC0yLjYyLS4wMDUtNS4yNCAwLTcuODZxMy41ODMgNC4yOSA3LjE4MSA4LjU2OGEyLjgzMyAyLjgzMyAwIDAgMCAyLjYuNzgyIDEuNTYxIDEuNTYxIDAgMCAwIDEuMjUxLTEuMzcxcS4wMDgtNS41NDEgMC0xMS4wODFhMS41ODIgMS41ODIgMCAwIDAgLTMuMTUyIDBjMCAyLjY2Mi0uMDE2IDUuMzIxIDAgNy45ODItMi4zNDYtMi43NjYtNC42NjMtNS41NTYtNy04LjMzMmEyLjgxNyAyLjgxNyAwIDAgMCAtMi42NDktMS4wNTIgMS41NzkgMS41NzkgMCAwIDAgLTEuNDAzIDEuNTA1eiIvPjwvc3ZnPg==" vertex="1" parent="1">
          <mxGeometry x="280" y="128" width="32" height="32" as="geometry" />
        </mxCell>
        <mxCell id="WMfQaxMlP1OemewcHctR-5" value="" style="shape=image;verticalLabelPosition=bottom;verticalAlign=top;imageAspect=0;aspect=fixed;image=data:image/svg+xml,PHN2ZyB4bWxucz0iaHR0cDovL3d3dy53My5vcmcvMjAwMC9zdmciIHdpZHRoPSI1MTIiIHZpZXdCb3g9IjAgMCA1MTIgMzA4Ljg4NDAwMjY4NTU0NjkiIHByZXNlcnZlQXNwZWN0UmF0aW89InhNaWRZTWlkIiBoZWlnaHQ9IjMwOC44ODQwMDI2ODU1NDY5Ij48cGF0aCBkPSJtMTIwLjgxMDQzIDgwLjU2MTMxMDJoOTYuNTY3ODk1djcuNjc1MzQ4N2gtODcuNzE1ODM4djU3Ljc2NzA5OTFoODIuNDg1MDc3djcuNjc1MzQ4aC04Mi40ODUwNzd2NjMuNDIyNjE5aDg4LjcyMTc1NHY3LjY3NTM0OGgtOTcuNTczODExem0xMDUuMjE4NzcgMGgxMC4yNjAzMzhsNDUuNDY3Mzg0IDYzLjQyMjYxODggNDYuNDczMy02My40MjI2MTg4IDYzLjIxMTI2NC04MC41NjEzMTAyLTEwMy44NTAyNTQgMTUwLjY0OTM2MyA1My41MTQ3MDkgNzQuMTI3NzFoLTEwLjY2MjcwNGwtNDguNjg2MzE1LTY3LjQ2MjI3NS00OC44ODc0OTcgNjcuNDYyMjc1aC0xMC40NjE1MjFsNTMuOTE3MDc0LTc0LjEyNzcxem0xMTguODk5MjIxIDcuNjc1MzQ4NnYtNy42NzUzNDg2aDExMC4wNDcxNjR2Ny42NzUzNDg3aC01MC42OTgxNDV2MTM2LjU0MDQxNDFoLTguODUyMDU4di0xMzYuNTQwNDE0MXptLTM0NC45Mjg0MjEtNy42NzUzNDg2aDExLjA2NTA3MTRsMTUyLjU4MDg1ODYgMjI4LjMyMjY5NjgtNjMuMDU0MzcyLTg0LjEwNjkzNC05MS4zMzcxMzQ2OS0xMzMuMzA4Njg4My0uNDAyMzY2MjMgMTMzLjMwODY4ODNoLTguODUyMDU3MDh6bTQ1NC4wODM3MDUgMTM0LjIyNDE1ODhjLTEuODA4NTM4IDAtMy4xNjQ5NDMtMS40MDEyODktMy4xNjQ5NDMtMy4yMTIxODQgMC0xLjgxMDg5NyAxLjM1NjQwNS0zLjIxMjE4NiAzLjE2NDk0My0zLjIxMjE4NiAxLjgzMDA2OSAwIDMuMTY0OTQzIDEuNDAxMjg5IDMuMTY0OTQzIDMuMjEyMTg2IDAgMS44MTA4OTUtMS4zMzQ4NzQgMy4yMTIxODQtMy4xNjQ5NDMgMy4yMTIxODR6bTguNjk4MjEtOC40NTA4NTFoNC43MzY2NDhjLjA2NDU5IDIuNTY1NDM3IDEuOTM3NzIxIDQuMjkwMTAxIDQuNjkzNTg4IDQuMjkwMTAxIDMuMDc4ODIxIDAgNC44MjI3NjktMS44NTQwMTQgNC44MjI3NjktNS4zMjQ4OTl2LTIxLjk4OTQ1N2g0LjgyMjc3djIyLjAxMTAxNmMwIDYuMjUxOTA2LTMuNjE3MDc3IDkuODUyMTM5LTkuNjAyNDc4IDkuODUyMTM5LTUuNjE5Mzg4IDAtOS40NzMyOTctMy40OTI0NDItOS40NzMyOTctOC44Mzg5em0yNS4zODQxMy0uMjgwMjU2aDQuNzc5NzA5Yy40MDkwNzQgMi45NTM0ODYgMy4yOTQxMjQgNC44MjkwNTcgNy40NDk0NTcgNC44MjkwNTcgMy44NzU0NDEgMCA2LjcxNzQyOS0yLjAwNDkyMSA2LjcxNzQyOS00Ljc2NDM4MyAwLTIuMzcxNDExLTEuODA4NTM4LTMuNzk0MjU5LTUuOTIwODEyLTQuNzY0MzgzbC00LjAwNDYxOS0uOTcwMTIyYy01LjYxOTM4OS0xLjMxNTA1Ny04LjE4MTQ4Ni00LjAzMTQwMi04LjE4MTQ4Ni04LjYwMTc1OSAwLTUuNTQwNDgyIDQuNTIxMzQ4LTkuMjI2OTQ5IDExLjMwMzM2Ny05LjIyNjk0OSA2LjMwODM1NSAwIDEwLjkxNTgyMiAzLjY4NjQ2NyAxMS4xOTU3MTUgOC45MjUxMzJoLTQuNjkzNTg4Yy0uNDUyMTM0LTIuODY3MjUyLTIuOTQ5NjQxLTQuNjU2NTktNi41NjY3MTgtNC42NTY1OS0zLjgxMDg0OSAwLTYuMzUxNDE0IDEuODMyNDU0LTYuMzUxNDE0IDQuNjM1MDMzIDAgMi4yMjA1MDMgMS42MzYyOTUgMy40OTI0NDIgNS42ODM5NzggNC40NDEwMDhsMy40MjMzMDUuODQwNzcyYzYuMzcyOTQ2IDEuNDg3NTI0IDguOTk5NjMyIDQuMDc0NTE3IDguOTk5NjMyIDguNzUyNjY4IDAgNS45NTAwODktNC42MDc0NjcgOS42Nzk2NzItMTEuOTcwODAzIDkuNjc5NjcyLTYuODg5NjcxIDAtMTEuNTE4NjY3LTMuNTU3MTE4LTExLjg2MzE1Mi05LjExOTE1NnoiLz48L3N2Zz4=" vertex="1" parent="1">
          <mxGeometry x="370" y="120" width="99.42" height="60" as="geometry" />
        </mxCell>
        <mxCell id="WMfQaxMlP1OemewcHctR-6" value="" style="shape=image;verticalLabelPosition=bottom;verticalAlign=top;imageAspect=0;aspect=fixed;image=data:image/svg+xml,PHN2ZyB4bWxucz0iaHR0cDovL3d3dy53My5vcmcvMjAwMC9zdmciIHdpZHRoPSI1MTEuMTgyODkxODQ1NzAzMSIgdmlld0JveD0iMC43OTk4MzUyMDUwNzgxMjUgMC44NjgxMjExNDcxNTU3NjE3IDUxMS4xODI4OTE4NDU3MDMxIDg2Ljg2MjM1ODA5MzI2MTcyIiBwcmVzZXJ2ZUFzcGVjdFJhdGlvPSJ4TWlkWU1pZCIgaGVpZ2h0PSI4Ni44NjIzNTgwOTMyNjE3MiI+PHBhdGggZmlsbD0iIzFmZDNlZiIgZD0ibTI2MC43NTgzNDEgMS4xMzIyODc0N2gxOS4wMjM5MDFjMTYuMDQ1NDcxIDIzLjEyODMxMjEzIDMyLjYzMzQyOSA0Ny41NDI0MDY1MyA0OS4zNzI3ODEgNzEuNjcyNjQwNjMgMTYuNjg2Nzg0LTI0LjA3MDMwOCAzMi43MTc1MzYtNDguMjYyNTcwOCA0OC45NTMyOTctNzEuNjgyMTAyNjRoMTkuMDMzMzY0djg2LjEzNzk1NDg0aC0xMi41NDQ1MjZ2LTczLjc2OTAwMjFsLTUwLjcxMTEyOSA3My43NjkwMDIxLTkuNjg4MDUtLjAxNTc3LTUwLjY3NTM4NC03My43NTMyMzIxLS4xMjA5MDMgNzMuNzY5MDAyMWgtMTIuNjQzMzUxeiIvPjxwYXRoIGZpbGw9IiM1ZDVkNWQiIGQ9Im00MjguMDY4Nzk3IDMyLjUwNDExNXMtNy43OTU2NDcuMDg3MjYwOC0xMC44NjQ0OTMuMDg3MjYwOGMtMS44Mzk4MzYtMjEuNzI3OTM0MyA0LjI3NTc3OC0yOS4zNTY0MTg5MiAyMi4xNzQ3NTEtMzAuODM1NjQ2ODUgMTkuNTI4NTQzLS43MDQzOTQyNSAzMy43MjE1NjEtLjM5NzQwNDUxIDUxLjQwNTAxMS0uMDAzMTU0IDEzLjExODU1NCAxLjAyMDg0NTk5IDE5LjAyNDk1MiA2LjE1MjQxMDY4IDIwLjcyMzkwOSAxOS4yMjU3NTc2NS41MzcyMzIgNC4xMzcwMDIxLjU5MDg1IDguNDAyMjY3LjI5OTYzMSAxMi41Njg3MDY0LS44NTM2ODQgMTIuMjAyODQxOS02LjQzNjI3MSAxOC4xNDkxOTEtMTguNjY4NTUxIDE5LjMyODc4ODUtMTQuNjMyNDc2IDEuNDExOTQyNS0yOS4zMTY0NjggMi4yNzkyOTM2LTQzLjk3MjA3MyAzLjQ2NzMwMTktNC4wMDU1ODYuMzI0ODYyNC04LjAzODUwNi42OTQ5MzIyLTExLjk2NzM0MyAxLjQ5Mzk0NjYtNy4zMDk5MzEgMS40ODY1ODcyLTEwLjAyNjU3OSAzLjE4NDQ5MjgtMTAuMzU3NzUgMTAuNDk5Njc5Ni0uMTE3NzQ5IDIuNjA3MzEwMS4xNDkyOSA2LjI0NzAzMDguMTQ5MjkgOS40NjQxMTVoODQuODMzMjQ4bC4wODgzMTIgOS40NTk5MDk3aC05NS4wNzQzYy4xMDQwODMtNy4yNTczNjM1LS41NzQwMjgtMTUuMzc0NzE4Ny40ODk5MjItMjIuNjM1MjM2MiAxLjQ1ODIwMi05Ljk0MTQyMDkgOC4wNzUzMDItMTQuNzgyODE3MiAxNy4zMDgxMjQtMTYuNDIxODQ4IDE1LjE5OTE0NS0yLjY5NzcyNDggMzAuNjY3NDMzLTIuNTkzNjQyNyA0NS45OTE2ODctNC4wMzA4MTcyIDMuNjU0NDQtLjM0MjczNTIgNy4zMDU3MjUtLjc3NjkzNjQgMTAuOTMxNzc5LTEuMzM4MzQ5MSAyLjI2MzUyMy0uMzUxMTQ1OCAzLjY3NTQ2Ni0uMDU5OTI2MSA1Ljk4NDE5Ny0yLjUzMzcxNjcgNC4yOTI1OTktMi40NTI3NjM4IDMuNjkyMjg3LTE0LjI4MDI3OTIgMi42MjgzMzctMjEuOTg5NzE2Ni0xLjMyNzgzNi01LjY2NDU5MTQtNi44MDEwODUtOC4wNDI3MTA1LTEyLjE2MTg0LTguMjQ0NTY2Ny0xNS43NTIxNDgtLjU5Mjk1MjgtMzEuNTIwMDY2LS42MjEzMzg4My00Ny4yNzAxMTEuMDI3MzM0Ny03Ljc5NTY0Ny4zMjE3MDg0LTExLjgzODAyOSA0Ljg3MDgzMzctMTIuNTAzNTI0IDEzLjQzNjA1NzUtLjIyNzA4OCAyLjkxNjQwMjQtLjE2ODIxMyA4Ljk3NDE5My0uMTY4MjEzIDguOTc0MTkzIi8+PHBhdGggZmlsbD0iIzFmZDNlZiIgZD0ibTE1MS41Njc3NyAxMS4xNzA0MzEyLjA0MzEwNS0xMC4yOTQ2NjkzOXM1MC41NTk3MzctLjAxNzg3MjY5IDczLjE1NjA3NC4wMDEwNTEzM2MxNS4wNDE0NDUuMDEyNjE2MDIgMjEuNzc5NDQ5IDYuNjQ2NTM3OTkgMjIuMDUzODQ4IDIxLjcyODk4NTY2LjA4NjIwOSA0LjcxOTQ0MTQtLjA1NzgyNCA5LjQxOTk1ODktLjY2MDIzOCAxNC4xMzQxNDM3LTEuMjM3NDIxIDkuNjk1NDA4Ni02LjI5MjIzOSAxNC45NzMxMDg4LTE2LjA3MTc1NCAxNi41NDE3MDAyLTYuNDUwOTkgMS4wMzM0NjItMTIuOTI4MjYzLjU5NjEwNjgtMTkuMzkzOTcxLjYyNjU5NTUtMTUuNTY2MDYyLjA3MTQ5MDgtMzEuMTMzMTc1LjAyMzEyOTQtNDcuMzgwNTAxLjAyMzEyOTR2MzMuMzI5NDEyN2gtMTEuNjc3MTc1di00My42MzAzOTAyczQ0LjMzMjY4Mi4yNzEyNDQ0IDYzLjU5NzMzOS4wMjUyMzIxYzE0LjcyODE0OC0uMTg3MTM3NiAyMC42ODUwMS0xLjMxODM3MzcgMTguNDgzNTE1LTIxLjQ3MjQ2LS44NTg5NC03Ljg1OTc3ODItMy43NDkwNTktMTAuNTc1Mzc1OC0xMi4wMzY3MzEtMTAuNzUwOTQ4Ni0xMy44MzEzNTktLjI5NDM3MzgtNzAuMTEzNTExLS4yNjE3ODI0LTcwLjExMzUxMS0uMjYxNzgyNCIvPjxwYXRoIGZpbGw9IiMxZmQzZWYiIGQ9Im02NC4zNDA2MzI0IDg3LjcxMjg1NDJjLTE4LjE5MzM0Ny4wMDEwNTEzLTM2LjM4Nzc0NTMuMDQ1MjA3NC01NC41ODEwOTIzNi0uMDIyMDc4LTYuMzk2MzIwMzMtLjAyMzEyOTQtOS43NzUzMTAwNi0zLjc1MjIxMzYtOC43OTEyNjA3OC05LjQ2MzA2MzcuODk2Nzg4NS01LjIwNjIwOTQgNC40OTIzNTMxOC02LjQ2NDY1NzEgOS4yMjQ0MTA2NC02LjQ1NjI0NjQgMzMuMDYzNDI1MS4wNTg4NzQ4IDY2LjEyNzkwMTUuMDMwNDg4NyA5OS4xOTEzMjYxLjAzMDQ4ODcgMy40OTg4NDIgMCA2Ljk5OTc4Ny0uMDc5OTAxNCAxMC40OTU0NzUuMDE5OTc1NCA1LjM0NjAzNy4xNTI0NDM1IDguNDI3NDk5IDMuMDgxNDYyIDguNDg1MzIyIDcuODk2NTc0OS4wNTg4NzUgNC43OTkzNDI5LTIuOTg4OTQ0IDcuOTIxODA3LTguMzkzODU2IDcuOTUyMjk1Ny0xOC41NDIzOS4xMDQwODIyLTM3LjA4Njg4MzEuMDM5OTUwNy01NS42MzAzMjQ2LjA0MjA1MzQiLz48cGF0aCBmaWxsPSIjNWQ1ZDVkIiBkPSJtNjQuMzQwNjMyNCA1My44MDczMTAxYy0xOC4xOTMzNDcuMDAxMDUxMy0zNi4zODc3NDUzLjA0NTIwNzQtNTQuNTgxMDkyMzYtLjAyMjA3ODEtNi4zOTYzMjAzMy0uMDIzMTI5My05Ljc3NTMxMDA2LTMuNzUyMjEzNS04Ljc5MTI2MDc4LTkuNDYzMDYzNi44OTY3ODg1LTUuMjA2MjA5NSA0LjQ5MjM1MzE4LTYuNDY0NjU3MSA5LjIyNDQxMDY0LTYuNDU2MjQ2NCAzMy4wNjM0MjUxLjA1OTkyNiA2Ni4xMjc5MDE1LjAzMDQ4ODcgOTkuMTkxMzI2MS4wMzA0ODg3IDMuNDk4ODQyIDAgNi45OTk3ODctLjA3OTkwMTUgMTAuNDk1NDc1LjAxOTk3NTMgNS4zNDYwMzcuMTUyNDQzNiA4LjQyNzQ5OSAzLjA4MTQ2MiA4LjQ4NTMyMiA3Ljg5NjU3NS4wNTg4NzUgNC43OTkzNDI5LTIuOTg4OTQ0IDcuOTIxODA3LTguMzkzODU2IDcuOTUyMjk1Ny0xOC41NDIzOS4xMDQwODIxLTM3LjA4Njg4MzEuMDM5OTUwNy01NS42MzAzMjQ2LjA0MjA1MzQiLz48cGF0aCBmaWxsPSIjMWZkM2VmIiBkPSJtNjQuMzQwNjMyNCAxOC4wNjE5MzAyYy0xOC4xOTMzNDcuMDAxMDUxMy0zNi4zODc3NDUzLjA0NTIwNzQtNTQuNTgxMDkyMzYtLjAyMjA3OC02LjM5NjMyMDMzLS4wMjMxMjk0LTkuNzc1MzEwMDYtMy43NTIyMTM2LTguNzkxMjYwNzgtOS40NjMwNjM3Ljg5Njc4ODUtNS4yMDYyMDk0NCA0LjQ5MjM1MzE4LTYuNDY0NjU3MDggOS4yMjQ0MTA2NC02LjQ1NjI0NjQxIDMzLjA2MzQyNTEuMDU4ODc0NzUgNjYuMTI3OTAxNS4wMzA0ODg3MSA5OS4xOTEzMjYxLjAzMDQ4ODcxIDMuNDk4ODQyIDAgNi45OTk3ODctLjA3ODg1MDEgMTAuNDk1NDc1LjAxOTk3NTM2IDUuMzQ2MDM3LjE1MjQ0MzUzIDguNDI3NDk5IDMuMDgxNDYyMDEgOC40ODUzMjIgNy44OTY1NzQ5NC4wNTg4NzUgNC43OTkzNDI5LTIuOTg4OTQ0IDcuOTIxODA3LTguMzkzODU2IDcuOTUyMjk1Ny0xOC41NDIzOS4xMDQwODIxLTM3LjA4Njg4MzEuMDM5OTUwNy01NS42MzAzMjQ2LjA0MjA1MzQiLz48L3N2Zz4=" vertex="1" parent="1">
          <mxGeometry x="350" y="250" width="74.73" height="12.72" as="geometry" />
        </mxCell>
      </root>
    </mxGraphModel>
  </diagram>
</mxfile>
